<?xml version="1.0" encoding="utf-8"?>
<!-- Generator: Adobe Illustrator 22.0.1, SVG Export Plug-In . SVG Version: 6.00 Build 0)  -->
<svg version="1.1" id="Livello_1" xmlns="http://www.w3.org/2000/svg" xmlns:xlink="http://www.w3.org/1999/xlink" x="0px" y="0px"
	 viewBox="0 0 440.1 300.6" style="enable-background:new 0 0 440.1 300.6;" xml:space="preserve">
<style type="text/css">
	.st0{fill:#0000FF;}
</style>
<g>
	<path class="st0" d="M373.6,37.9h32.2l18.8,83.6h-17l-3.3-15.1h-29.2l-3.3,15.1h-17L373.6,37.9z M378.3,91.6h22.9l-8.5-39.7h-5.9
		L378.3,91.6z M389.8,245.6c10,0,14.9-4.8,14.9-14.6v-55.7h17v55.3c0,20.9-10.9,29.8-31.8,29.8s-31.8-8.9-31.8-29.8v-55.3h17V231
		C374.9,240.9,379.8,245.6,389.8,245.6z"/>
	<path class="st0" d="M439.4,145.3H300.7V0H0v300.6h300.6V153.5h138.7L439.4,145.3z M292.4,292.4H8.3V8.3h284.1V292.4z"/>
</g>
</svg>
